<svg xmlns="http://www.w3.org/2000/svg" viewBox="0 0 557.32 330.56"><g id="Layer_2" data-name="Layer 2"><g id="Layer_1_copy" data-name="Layer 1 copy"><g style="opacity:0.3"><path d="M0,323.68v-.45l77.2-64.78L215.56,33,213.31.45V0h93.22l20.31,258.45,5.65,64.33-.45.9H202.47v-.45l31.15-25.5-6.54-87.81H119L89.84,258.45l37.92,64.78v.45ZM126,199.76H227.08L216.92,49.66Z" style="fill:#fff"/></g><path d="M421.73,175.56l-43,43a28.58,28.58,0,1,1-40.15,40.15l-43,43A89.23,89.23,0,1,0,421.73,175.56Z" style="fill:#c18372"/><circle cx="361.42" cy="239.78" r="42.88" style="fill:#c18372"/><text id="Khoi_Nguyen" data-name="Khoi  Nguyen" transform="translate(122.02 182.69)" style="font-size:126.23187255859375px;fill:#fff;font-family:Cako-Regular, Cako;letter-spacing:-0.049999443956361696em">AB<tspan x="161.25" y="0" style="letter-spacing:-0.05781306586506126em">O</tspan><tspan x="251.9" y="0" style="letter-spacing:0.07109622310985053em">U</tspan><tspan x="355.54" y="0">T</tspan><tspan x="0" y="103.51" xml:space="preserve"> ME</tspan></text></g></g></svg>