<svg xmlns="http://www.w3.org/2000/svg" viewBox="0 0 717.79 438.07"><defs><style>.cls-1{fill:#fbd8c5;}.cls-2{opacity:0.35;}.cls-3{fill:none;stroke:#000;stroke-miterlimit:10;stroke-width:0.75px;}.cls-4{font-size:150px;fill:#fff;font-family:Cako-Regular, Cako;letter-spacing:-0.05em;}.cls-5{letter-spacing:-0.06em;}.cls-6{letter-spacing:-0.09em;}.cls-7{letter-spacing:-0.06em;}.cls-8{letter-spacing:-0.08em;}.cls-9{letter-spacing:-0.09em;}</style></defs><g id="Layer_2" data-name="Layer 2"><g id="Layer_1_copy" data-name="Layer 1 copy"><ellipse class="cls-1" cx="453.52" cy="202.5" rx="189.5" ry="202.5"/><g class="cls-2"><path class="cls-3" d="M.38,233.72v-.19l13-11.63L47,105.5,40.61,93.88v-.2H97.84v.2L85,105.5,73.42,145a27.92,27.92,0,0,1,11.09-10.5A30.86,30.86,0,0,1,99.4,130.5h12.4l10.65-36.82H174l-40,41H98.42a25,25,0,0,0-15,5.27A24.4,24.4,0,0,0,74,153q-2.34,8,1.76,12.21t13.08,4.2H115l19.63,64.16v.19H74.4v-.19l13-11.43L68.64,162.33,51.45,221.9l6.15,11.63v.19Z"/><path class="cls-3" d="M135.73,233.72v-.19l13.08-11.63,33.6-116.4L176,93.88v-.2h47.66l-19.05,66.21q8.51-14.05,17.24-20.7a33,33,0,0,1,20.56-6.64q11.91,0,16.84,8.4t1.32,21.58L243.34,221.9l6.25,11.63v.19H201.94l.19-.19,3.23-11.63,13.57-47.55q2.25-8.21-5.76-8.21a14.6,14.6,0,0,0-7.86,2.44,11.63,11.63,0,0,0-5.13,6.94L186.8,221.9,193,233.53v.19Z"/><path class="cls-3" d="M266.07,179.52a58.9,58.9,0,0,1,14.11-24.61,69.54,69.54,0,0,1,23.88-16.6,72,72,0,0,1,28.22-5.76q14.64,0,25,7.32a34.36,34.36,0,0,1,13.62,19.63q3.31,12.31-.78,28.42A59,59,0,0,1,356,212.53a69.41,69.41,0,0,1-23.88,16.6,72,72,0,0,1-28.22,5.76,45.71,45.71,0,0,1-19.68-4.1,33.48,33.48,0,0,1-13.77-11.47A40.58,40.58,0,0,1,264,201.79Q262.54,191.64,266.07,179.52Zm35.84,8.4a122.14,122.14,0,0,0-4.54,22.51q-.93,10,.78,15.43t5.71,5.42q6.64,0,15.33-14.8t15.14-37q2.15-7.52,3.37-14.31a87.48,87.48,0,0,0,1.41-12,43.83,43.83,0,0,0-.48-9.08,12.94,12.94,0,0,0-2.35-5.91,5,5,0,0,0-4-2.05q-6.54,0-15.24,14.8T301.91,187.92Z"/><path class="cls-3" d="M355.21,233.72l.19-.19,12.89-11.63,22-76.36-6.45-11.62.2-.2h47.65L406.28,221.9l6.35,11.63-.2.19Zm61-112.79q-8.1,0-12.16-5.76t-1.8-13.87A26.22,26.22,0,0,1,412,87.53q7.41-5.76,15.52-5.76t12.11,5.76q4.11,5.76,1.86,13.77a26.21,26.21,0,0,1-9.72,13.87Q424.25,120.93,416.24,120.93Z"/><path class="cls-3" d="M18.8,386.72v-.19l35.45-29.59,25.19-87.8-8.2-22.26-.39-.2h48.34l33.2,78,14.06-48.15L148,246.88v-.2h57.81v.2l-35.16,29.68L138.82,386.72H128L81.79,275.49,58.45,356.94l18.16,29.59v.19Z"/><path class="cls-3" d="M202.12,436.13l30.08-30.37h15.33l3-10.25q1.27-4.89-1.31-7.42t-7.86-2.54a12.88,12.88,0,0,0-7.33,2.78,35.52,35.52,0,0,0-6,5.18q-2.1,2.39-7.66,9.52l-.29.29a2.29,2.29,0,0,0-.25.3,3.42,3.42,0,0,1-.29.34,1.25,1.25,0,0,0-.25.34Q203,424.81,194.5,431.25a30.86,30.86,0,0,1-19.14,6.45q-10.65,0-15.72-8.55T158,408.89q2.63-9.28,12.5-15.92a55.16,55.16,0,0,1,20.7-8.69q-16.22-3.61-23.63-18.21t-2-33.55q5.57-19.14,24.71-32.47t41-13.33a35.45,35.45,0,0,1,22.85,8l26.76-23.44h13.18l-9.18,31.25-19.34,1.56q10.35,14.46,3.91,36.82a56,56,0,0,1-14.16,23.88,72,72,0,0,1-23.88,16.26A70.69,70.69,0,0,1,204,386.72a21.26,21.26,0,0,0-10,2.34,7.54,7.54,0,0,0-4.49,7,6.33,6.33,0,0,0,2.29,5.07,9.08,9.08,0,0,0,6.11,2,28.09,28.09,0,0,0,9.42-1.61,29.46,29.46,0,0,0,7.81-4.06q3.27-2.44,6.74-5.32t6.3-5.32a26.14,26.14,0,0,1,6.4-4.05,17.19,17.19,0,0,1,7.18-1.62q7.51,0,11,4.94t1,13.81l-10.45,36.23Zm-.78-95.21q-5.09,17.67-4.4,29.93t6.84,12.26q6.43,0,15.18-14.85t14.8-35.74q5.07-17.67,4.39-29.93t-6.83-12.26q-6.45,0-15.19,14.85T201.34,340.92Z"/><path class="cls-3" d="M296.51,286.92v-.2h47.66L327.08,346.1q-2.25,8.19,5.86,8.2a14.51,14.51,0,0,0,7.86-2.44,11.71,11.71,0,0,0,5.13-6.94l13.38-46.38-6.16-11.62v-.2h47.56L375.32,374.9l6.15,11.63v.19H333.91l7.62-26.17q-8.49,14.06-17.23,20.7a33,33,0,0,1-20.56,6.64q-11.72,0-16.55-9.27t-1-22.66l16.6-57.42Z"/><path class="cls-3" d="M403.11,286.92v-.2h55.77v.2l-13,11.62,13.47,47.95,27-29.2-9.38-30.37v-.2h41.8v.2l-10.45,11.42-85.35,96.39q-14.74,16.5-20.22,21.58-11,10.15-22.56,13a59.81,59.81,0,0,1-13.86,1.46l11.42-40.82a31.36,31.36,0,0,0,8.74,2,60.45,60.45,0,0,0,11.77-.2A59,59,0,0,0,413,387.94a80.77,80.77,0,0,0,15.92-8.25l-22.56-81.35Z"/><path class="cls-3" d="M503.43,333.5A63,63,0,0,1,518,307.33a65,65,0,0,1,23.63-16.41A75.57,75.57,0,0,1,570,285.55q16.61,0,26.76,9.18T607.23,319h-66.6a38.66,38.66,0,0,0-4.34,11.91,24.06,24.06,0,0,0,.29,10.65,20.33,20.33,0,0,0,13.28,14.16,36,36,0,0,0,12.55,2.05q11.91,0,23.39-7.67a52.3,52.3,0,0,0,17.43-18.7,61,61,0,0,1-12,28.61,70.44,70.44,0,0,1-24,20.51A62.4,62.4,0,0,1,538,387.89q-13.57,0-23.15-7.18a33.25,33.25,0,0,1-12.55-19.28Q499.33,349.33,503.43,333.5Zm39.25-19.14,30.18-4.2q4.78-19.64-3.42-19.63-5.57,0-14.06,8.1A67.51,67.51,0,0,0,542.68,314.36Z"/><path class="cls-3" d="M591.51,386.72v-.19L604.6,374.9l22-76.36-6.25-11.62v-.2H668l-7.62,26.17q8.49-14.06,17.24-20.7a33,33,0,0,1,20.55-6.64q11.82,0,16.6,9.13t1,22.41l-16.6,57.81,6.25,11.63v.19H657.72l.2-.19,3.22-11.63,13.58-47.55q2.24-8.21-5.77-8.21a14.6,14.6,0,0,0-7.86,2.44,11.65,11.65,0,0,0-5.12,6.94L642.59,374.9l6.15,11.63v.19Z"/></g><text id="Khoi_Nguyen" data-name="Khoi  Nguyen" class="cls-4" transform="translate(13.02 266)">K<tspan class="cls-5" x="97.75" y="0">h</tspan><tspan x="182.75" y="0">oi</tspan><tspan x="0" y="112"> </tspan><tspan class="cls-6" x="38.94" y="112">N</tspan><tspan class="cls-7" x="133.68" y="112">g</tspan><tspan class="cls-8" x="217.22" y="112">u</tspan><tspan class="cls-9" x="299.37" y="112">y</tspan><tspan x="374.05" y="112">en</tspan></text></g></g></svg>