<svg xmlns="http://www.w3.org/2000/svg" viewBox="0 0 717.04 437.7"><g id="Layer_2" data-name="Layer 2"><g id="Layer_1_copy" data-name="Layer 1 copy"><ellipse cx="453.15" cy="202.5" rx="189.5" ry="202.5" style="fill:#c18372"/><g style="opacity:0.19"><path d="M0,233.72v-.19L13,221.9,46.58,105.5,40.23,93.88v-.2H97.46v.2L84.67,105.5,73.05,145a27.89,27.89,0,0,1,11.08-10.5A30.92,30.92,0,0,1,99,130.5h12.41l10.64-36.82h51.56l-40,41H98.05a25,25,0,0,0-15,5.27,24.42,24.42,0,0,0-9.43,13q-2.34,8,1.76,12.21t13.09,4.2h26.17l19.63,64.16v.19H74v-.19L87,222.1,68.26,162.33,51.07,221.9l6.16,11.63v.19Z" style="fill:#fff"/><path d="M135.35,233.72v-.19l13.09-11.63L182,105.5l-6.44-11.62v-.2h47.65l-19,66.21q8.49-14.05,17.24-20.7A33,33,0,0,1,242,132.55q11.91,0,16.85,8.4t1.32,21.58L243,221.9l6.25,11.63v.19H201.56l.2-.19L205,221.9l13.57-47.55q2.25-8.21-5.76-8.21a14.6,14.6,0,0,0-7.86,2.44,11.71,11.71,0,0,0-5.13,6.94L186.43,221.9l6.15,11.63v.19Z" style="fill:#fff"/><path d="M265.69,179.52a59.11,59.11,0,0,1,14.11-24.61,69.64,69.64,0,0,1,23.88-16.6,72,72,0,0,1,28.22-5.76q14.66,0,25,7.32a34.43,34.43,0,0,1,13.63,19.63q3.31,12.31-.78,28.42a59,59,0,0,1-14.12,24.61,69.46,69.46,0,0,1-23.87,16.6,72,72,0,0,1-28.23,5.76,45.64,45.64,0,0,1-19.67-4.1A33.41,33.41,0,0,1,270,219.32a40.59,40.59,0,0,1-6.45-17.53Q262.18,191.64,265.69,179.52Zm35.84,8.4A123,123,0,0,0,297,210.43q-.93,10,.78,15.43t5.71,5.42q6.64,0,15.34-14.8t15.13-37a143.13,143.13,0,0,0,3.37-14.31,86.1,86.1,0,0,0,1.42-12,43.08,43.08,0,0,0-.49-9.08,13,13,0,0,0-2.34-5.91,5,5,0,0,0-4-2.05q-6.54,0-15.23,14.8T301.53,187.92Z" style="fill:#fff"/><path d="M354.83,233.72l.2-.19,12.89-11.63,22-76.36-6.44-11.62.19-.2H431.3L405.91,221.9l6.34,11.63-.19.19Zm61-112.79q-8.12,0-12.16-5.76T401.9,101.3a26.27,26.27,0,0,1,9.67-13.77q7.43-5.76,15.53-5.76t12.11,5.76q4.1,5.76,1.85,13.77a26.19,26.19,0,0,1-9.71,13.87Q423.88,120.93,415.87,120.93Z" style="fill:#fff"/><path d="M18.42,386.72v-.19l35.45-29.59,25.2-87.8-8.21-22.26-.39-.2h48.34l33.21,78,14.06-48.15-18.46-29.68v-.2h57.81v.2l-35.15,29.68L138.44,386.72H127.6L81.41,275.49,58.07,356.94l18.16,29.59v.19Z" style="fill:#fff"/><path d="M201.74,436.13l30.08-30.37h15.33l3-10.25c.84-3.26.41-5.73-1.32-7.42s-4.34-2.54-7.86-2.54a12.85,12.85,0,0,0-7.32,2.78,35.13,35.13,0,0,0-6,5.18q-2.1,2.39-7.67,9.52l-.29.29a2.38,2.38,0,0,0-.24.3,3.45,3.45,0,0,1-.3.34,1.22,1.22,0,0,0-.24.34q-16.31,20.51-24.81,26.95A30.84,30.84,0,0,1,175,437.7q-10.64,0-15.72-8.55t-1.66-20.26q2.64-9.28,12.5-15.92a55.29,55.29,0,0,1,20.7-8.69q-16.2-3.61-23.63-18.21t-1.95-33.55q5.57-19.14,24.71-32.47t41-13.33a35.43,35.43,0,0,1,22.85,8l26.76-23.44h13.18l-9.17,31.25-19.34,1.56q10.35,14.46,3.91,36.82A55.93,55.93,0,0,1,255,364.8a72.05,72.05,0,0,1-23.87,16.26,70.69,70.69,0,0,1-27.49,5.66,21.2,21.2,0,0,0-10,2.34,7.54,7.54,0,0,0-4.5,7,6.34,6.34,0,0,0,2.3,5.07,9,9,0,0,0,6.1,2,28.1,28.1,0,0,0,9.43-1.61,29.61,29.61,0,0,0,7.81-4.06q3.27-2.44,6.74-5.32t6.3-5.32a26.08,26.08,0,0,1,6.39-4.05,17.23,17.23,0,0,1,7.18-1.62q7.52,0,11,4.94t1,13.81L243,436.13ZM201,340.92q-5.07,17.67-4.39,29.93t6.83,12.26q6.45,0,15.19-14.85t14.79-35.74q5.09-17.67,4.4-29.93t-6.84-12.26q-6.45,0-15.18,14.85T201,340.92Z" style="fill:#fff"/><path d="M296.14,286.92v-.2h47.65L326.7,346.1q-2.24,8.19,5.86,8.2a14.51,14.51,0,0,0,7.86-2.44,11.67,11.67,0,0,0,5.13-6.94l13.38-46.38-6.15-11.62v-.2h47.56L375,374.9l6.15,11.63v.19H333.54l7.62-26.17q-8.51,14.06-17.24,20.7a33,33,0,0,1-20.56,6.64q-11.72,0-16.55-9.27t-1-22.66l16.6-57.42Z" style="fill:#fff"/><path d="M402.74,286.92v-.2H458.5v.2l-13,11.62L459,346.49l26.95-29.2-9.37-30.37v-.2h41.79v.2l-10.45,11.42-85.35,96.39q-14.74,16.5-20.21,21.58-11,10.15-22.56,13a59.83,59.83,0,0,1-13.87,1.46l11.43-40.82a31.28,31.28,0,0,0,8.74,2,60.45,60.45,0,0,0,11.77-.2,59,59,0,0,0,14.74-3.76,80.49,80.49,0,0,0,15.92-8.25L406,298.34Z" style="fill:#fff"/><path d="M503.05,333.5a63.25,63.25,0,0,1,14.55-26.17,65.09,65.09,0,0,1,23.63-16.41,75.61,75.61,0,0,1,28.42-5.37q16.61,0,26.76,9.18T606.86,319h-66.6a38.69,38.69,0,0,0-4.35,11.91,24.2,24.2,0,0,0,.3,10.65,20.93,20.93,0,0,0,4.54,8.44,21.26,21.26,0,0,0,8.74,5.72A36,36,0,0,0,562,357.72q11.91,0,23.38-7.67a52.42,52.42,0,0,0,17.44-18.7,61,61,0,0,1-12,28.61,70.5,70.5,0,0,1-24,20.51,62.41,62.41,0,0,1-29.25,7.42q-13.57,0-23.14-7.18a33.2,33.2,0,0,1-12.55-19.28Q498.95,349.33,503.05,333.5Zm39.26-19.14,30.17-4.2q4.78-19.64-3.41-19.63-5.57,0-14.07,8.1A67.44,67.44,0,0,0,542.31,314.36Z" style="fill:#fff"/><path d="M591.14,386.72v-.19l13.08-11.63,22-76.36L620,286.92v-.2H667.6L660,312.89q8.5-14.06,17.24-20.7a33,33,0,0,1,20.56-6.64q11.81,0,16.6,9.13t1,22.41L698.75,374.9,705,386.53v.19H657.35l.19-.19,3.23-11.63,13.57-47.55q2.25-8.21-5.76-8.21a14.6,14.6,0,0,0-7.86,2.44,11.71,11.71,0,0,0-5.13,6.94L642.21,374.9l6.15,11.63v.19Z" style="fill:#fff"/></g><text id="Khoi_Nguyen" data-name="Khoi  Nguyen" transform="translate(12.65 266)" style="font-size:150px;fill:#fff;font-family:Cako-Regular, Cako;letter-spacing:-0.05em">K<tspan x="97.75" y="0" style="letter-spacing:-0.06220703125em">h</tspan><tspan x="182.75" y="0">oi</tspan><tspan x="0" y="112"> </tspan><tspan x="38.94" y="112" style="letter-spacing:-0.08515625em">N</tspan><tspan x="133.68" y="112" style="letter-spacing:-0.0578125em">g</tspan><tspan x="217.22" y="112" style="letter-spacing:-0.083203125em">u</tspan><tspan x="299.37" y="112" style="letter-spacing:-0.0880859375em">y</tspan><tspan x="374.05" y="112">en</tspan></text></g></g></svg>