<svg xmlns="http://www.w3.org/2000/svg" viewBox="0 0 182.14 116.37"><g id="Layer_2" data-name="Layer 2"><g id="Layer_1_copy" data-name="Layer 1 copy"><path d="M77.32,116.12a210.93,210.93,0,0,1-22.63-1.56Q40.83,113,32.3,111.26l10.6-38,13.86.15,18.33,38.81a31.55,31.55,0,0,0,13.23-3,29.92,29.92,0,0,0,10.76-8.09,16.67,16.67,0,0,0,4.22-10.76,10,10,0,0,0-3.15-7.49q-1.71-1.76-3.22-3a31,31,0,0,0-4.47-3c-2-1.11-3.51-2-4.66-2.59s-2.92-1.51-5.34-2.71-4.13-2-5.14-2.51q-20.4-10.59-20.4-27.89A38.41,38.41,0,0,1,61,23.36,35.61,35.61,0,0,1,72,10.49,52.5,52.5,0,0,1,88,2.88,69,69,0,0,1,107.37.25q13,0,36.26,3.75l-8.69,31.71h-21.2L99.08,4.87a23.6,23.6,0,0,0-12.63,8.57q-5.31,6.65-5.3,13.43a9.79,9.79,0,0,0,1.11,4.54,16.88,16.88,0,0,0,2.67,3.78,25,25,0,0,0,4.35,3.47,59.16,59.16,0,0,0,5.1,3q2.31,1.2,6,3c3,1.43,5.44,2.71,7.38,3.82a65.33,65.33,0,0,1,6.61,4.5,29.65,29.65,0,0,1,5.9,5.82,29.27,29.27,0,0,1,5.3,16.86,35.73,35.73,0,0,1-6.66,21.23,42.63,42.63,0,0,1-17.61,14.31A57.64,57.64,0,0,1,77.32,116.12Z" style="fill:none;stroke:#c18372;stroke-miterlimit:10;stroke-width:1px"/><path d="M15.67,77.41q-3,0-7.86-.49T0,75.87v-13l4.69,0,10,13a6.23,6.23,0,0,0,1.38.16,5.92,5.92,0,0,0,4.21-1.63,5.19,5.19,0,0,0,1.74-3.94A5,5,0,0,0,21.8,69a6.06,6.06,0,0,0-.63-1.33,5,5,0,0,0-1.11-1.17,14.62,14.62,0,0,0-1.33-1,16.79,16.79,0,0,0-1.66-.91c-.7-.35-1.28-.63-1.76-.84l-2-.83c-.84-.35-1.5-.63-2-.85-1.19-.52-2.22-1-3.1-1.52a20.06,20.06,0,0,1-2.76-1.89,11.79,11.79,0,0,1-2.36-2.45A11.75,11.75,0,0,1,1.64,53a13.52,13.52,0,0,1-.59-4.07,9.42,9.42,0,0,1,3.78-7.63q3.8-3.06,10-3.06,2.2,0,12.52,1.21l.11,10.77H20.25l-8-10.61h0a5.3,5.3,0,0,0-2.87,2,5.49,5.49,0,0,0-1.07,3.3,4.9,4.9,0,0,0,.5,2.17,7.83,7.83,0,0,0,1,1.65,8.09,8.09,0,0,0,1.93,1.47c.91.55,1.61.94,2.09,1.17s1.34.63,2.59,1.19l.41.19c.7.3,1.26.56,1.7.76l1.65.81a17.91,17.91,0,0,1,1.67.92c.44.28,1,.61,1.55,1a9.45,9.45,0,0,1,1.47,1.18c.38.4.8.84,1.24,1.34a6.88,6.88,0,0,1,1.07,1.56c.28.55.54,1.14.79,1.78a9.8,9.8,0,0,1,.53,2.07,14.78,14.78,0,0,1,.18,2.36,9.67,9.67,0,0,1-1.75,5.68,11.33,11.33,0,0,1-4.7,3.84A15.79,15.79,0,0,1,15.67,77.41Z" style="fill:#fff"/><path d="M32.64,77.14v0l2.67-3.21V41.78l-2.67-3.21v0H48.42v0l-2.64,3.21v11a5.73,5.73,0,0,1,2.28-3,6.46,6.46,0,0,1,3.73-1.16h3.42V38.52H69.38L61.59,49.83h-9.8a5.21,5.21,0,0,0-3.7,1.46,4.67,4.67,0,0,0-1.55,3.58A4,4,0,0,0,48,58.23a6.27,6.27,0,0,0,4,1.16h7.16l10.48,17.7v0H53.06v0l2.64-3.16L47.1,59.66l-1.32-2.21V73.88l2.64,3.21v0Z" style="fill:#fff"/><path d="M72.07,77.14v0l2.67-3.21V41.78l-2.67-3.21v0H87.85v0l-2.64,3.21v32.1l2.64,3.21v0Z" style="fill:#fff"/><path d="M92.67,77.14v0l2.67-3.21V41.78l-2.67-3.21v0h15.79v0l-2.64,3.21V61l-6.41,8.73a6.18,6.18,0,0,0-.6.93,12.55,12.55,0,0,0-.55,1.19A3,3,0,0,0,98,73.17a3.14,3.14,0,0,0,.34,1.22,2.2,2.2,0,0,0,1.19,1,7.37,7.37,0,0,0,2.33.49l6.68-9.15h11.91l-7.33,10.42Z" style="fill:#fff"/><path d="M122.35,77.14v0L125,73.88V41.78l-2.67-3.21v0h15.78v0l-2.63,3.21V61l-6.41,8.73a6.18,6.18,0,0,0-.6.93,12.55,12.55,0,0,0-.55,1.19,3,3,0,0,0-.24,1.34,3.31,3.31,0,0,0,.33,1.22,2.27,2.27,0,0,0,1.2,1,7.31,7.31,0,0,0,2.33.49l6.68-9.15h11.91l-7.33,10.42Z" style="fill:#fff"/><path d="M169.19,77.41q-3,0-7.87-.49t-7.81-1v-13l4.69,0,10,13a6.29,6.29,0,0,0,1.38.16,5.92,5.92,0,0,0,4.21-1.63,5.19,5.19,0,0,0,1.74-3.94,5,5,0,0,0-.26-1.62,6.06,6.06,0,0,0-.63-1.33,5.13,5.13,0,0,0-1.1-1.17,16.17,16.17,0,0,0-1.34-1,17.66,17.66,0,0,0-1.65-.91q-1.05-.52-1.77-.84l-2-.83c-.84-.35-1.5-.63-2-.85-1.19-.52-2.22-1-3.1-1.52A20.06,20.06,0,0,1,159,58.62a11.79,11.79,0,0,1-2.36-2.45,11.45,11.45,0,0,1-1.5-3.16,13.21,13.21,0,0,1-.6-4.07,9.4,9.4,0,0,1,3.79-7.63q3.78-3.06,10-3.06,2.21,0,12.53,1.21l.1,10.77h-7.21l-8.06-10.61h-.05a5.33,5.33,0,0,0-2.87,2,5.48,5.48,0,0,0-1.06,3.3,4.77,4.77,0,0,0,.5,2.17,7.83,7.83,0,0,0,1.05,1.65,8,8,0,0,0,1.92,1.47c.92.55,1.61.94,2.09,1.17s1.34.63,2.6,1.19l.4.19c.7.3,1.27.56,1.7.76l1.65.81a16.7,16.7,0,0,1,1.67.92c.44.28,1,.61,1.55,1a9,9,0,0,1,1.47,1.18c.39.4.8.84,1.24,1.34a7.27,7.27,0,0,1,1.08,1.56c.27.55.54,1.14.78,1.78A10.44,10.44,0,0,1,182,64.2a16.07,16.07,0,0,1,.17,2.36,9.67,9.67,0,0,1-1.75,5.68,11.27,11.27,0,0,1-4.7,3.84A15.71,15.71,0,0,1,169.19,77.41Z" style="fill:#fff"/></g></g></svg>