<svg xmlns="http://www.w3.org/2000/svg" viewBox="0 0 333.38 117"><g id="Layer_2" data-name="Layer 2"><g id="Layer_1_copy" data-name="Layer 1 copy"><path d="M31.61,116.75v-.16l10.81-9.67L70.36,10.08,65.08.41V.25h89.69l-9,31.44H124.63L112.85,3.91h-9.18l-15.11,53,33.39-20h1.22L111,79.46h-1.13L87.91,59.15,72.39,113.09h9L109.2,85.31h21.28l-9.18,31.44Z" style="fill:none;stroke:#c18372;stroke-miterlimit:10;stroke-width:1px"/><path d="M0,77.11v-.06l2.6-3.12V42.65L0,39.53v-.06H29V49.63H22.15l-6.4-9H12.81V57.77h0l8.92-6.46h.37V65.06h-.37L12.86,58.5h0V75.93h2.94l6.4-9H29V77.11Z" style="fill:#fff"/><path d="M32.45,77.11v-.06L47,61.47,33,39.53v-.06H50.61v.06l-2.58,3,6.77,10.6,5.38-5.82-5-7.74v-.06H69.11v.06L55.46,54.17,68.35,74.48,70,77.05v.06H52.65v-.06l2.57-2.57L47.67,62.54l-5.44,5.85,5.49,8.66v.06Z" style="fill:#fff"/><path d="M74.72,77.05l2.6-3.12V42.65l-2.6-3.12v-.06h15.8q7,0,10.53,2.86t3.57,8.22a10.1,10.1,0,0,1-3.56,8.27q-3.56,2.91-10.43,2.91h-3.1v12.2l2.57,3.12v.06H74.72ZM87.58,60.5A6.87,6.87,0,0,0,91.82,57a13,13,0,0,0,1.51-6.48,16.6,16.6,0,0,0-.64-4.71,9,9,0,0,0-2-3.65,4.13,4.13,0,0,0-3.11-1.46h0V60.5Z" style="fill:#fff"/><path d="M108,77.11v-.06l2.59-3.12V42.65L108,39.53v-.06h29V49.63h-6.82l-6.41-9h-2.94V57.77h.06l8.92-6.46h.37V65.06h-.37l-8.92-6.56h-.06V75.93h2.94l6.41-9H137V77.11Z" style="fill:#fff"/><path d="M141.78,77.11v-.06l2.6-3.28v-31l-2.6-3.28v-.06h15.8q6.91,0,10.51,2.81a9.49,9.49,0,0,1,3.58,7.9q0,5.84-4.08,8.35T154.9,61.05h-.32a2.34,2.34,0,0,0,1.11,2,4.57,4.57,0,0,0,2.65.76h13.17V77.05A17.33,17.33,0,0,1,160,72.86a16.88,16.88,0,0,1-5.41-8.22v9.29l2.58,3.12v.06Zm12.8-17.3h.06a4.11,4.11,0,0,0,3.11-1.48,9.27,9.27,0,0,0,2-3.63,15.68,15.68,0,0,0,.64-4.52,15.15,15.15,0,0,0-.64-4.45,8.94,8.94,0,0,0-2-3.55,4.15,4.15,0,0,0-3.11-1.45h-.06Z" style="fill:#fff"/><path d="M176.71,77.11v-.06l2.6-3.12V42.65l-2.6-3.12v-.06h15.38v.06l-2.58,3.12V73.93l2.58,3.12v.06Z" style="fill:#fff"/><path d="M196.78,77.11v-.06l2.6-3.12V42.65l-2.6-3.12v-.06h29V49.63h-6.83l-6.4-9h-2.94V57.77h0l8.93-6.46h.36V65.06h-.36l-8.93-6.56h0V75.93h2.94l6.4-9h6.83V77.11Z" style="fill:#fff"/><path d="M229.47,77.11v-.06l7.19-8V45.51l-4-6,0-.06h13l15,21V47.5l-7.22-8v-.06h15.54v.06l-7.2,8V77.11h-3l-21-29.89V69.1l7.22,8v.06Z" style="fill:#fff"/><path d="M268,58.55a20.49,20.49,0,0,1,2.32-9.67,17.85,17.85,0,0,1,6.28-6.9,15.76,15.76,0,0,1,8.62-2.51h14.56V49.63H292.5l-6.22-8.9h0a12,12,0,0,0-6.6,4.94,14.79,14.79,0,0,0-2.56,8.61,14.16,14.16,0,0,0,3.63,9.94,11.76,11.76,0,0,0,9,4,12.78,12.78,0,0,0,7.79-2.67,13.17,13.17,0,0,0,4.88-6.83h.06a20.89,20.89,0,0,1-1.34,7.25,19.46,19.46,0,0,1-3.56,6A16.35,16.35,0,0,1,292.09,76a16.19,16.19,0,0,1-15.52-1,17.84,17.84,0,0,1-6.24-6.89A20.2,20.2,0,0,1,268,58.55Z" style="fill:#fff"/><path d="M304.41,77.11v-.06l2.6-3.12V42.65l-2.6-3.12v-.06h29V49.63h-6.82l-6.4-9h-2.94V57.77h0l8.92-6.46h.37V65.06h-.37l-8.92-6.56h0V75.93h2.94l6.4-9h6.82V77.11Z" style="fill:#fff"/></g></g></svg>