<svg xmlns="http://www.w3.org/2000/svg" viewBox="0 0 668.66 326.91"><g id="Layer_2" data-name="Layer 2"><g id="Layer_1_copy" data-name="Layer 1 copy"><path d="M0,323.45V323l30-26.84L107.59,27.29,92.93.45V0H228.26q59.55,0,82.67,27.52t8.91,77.36q-12.18,42.41-48.5,64.4t-95.63,22H148L118,296.15,132.18,323v.46ZM151.12,179.32q25.49-6.54,46.24-32.15t30.9-61.68a118.24,118.24,0,0,0,4.63-27.41,78.14,78.14,0,0,0-2.37-23.91,32.53,32.53,0,0,0-10.6-17q-7.68-6.32-19.4-6.31Z" style="fill:#fff;opacity:0.3"/><path d="M325,233.22l-60.76.41a28.58,28.58,0,1,1-56.78.39l-60.76.41A89.24,89.24,0,1,0,325,233.22Z" style="fill:#c18372"/><rect x="265.23" y="233" width="321" height="43" style="fill:#c18372"/><text id="Khoi_Nguyen" data-name="Khoi  Nguyen" transform="translate(65.12 221.15)" style="font-size:126.23187255859375px;fill:#fff;font-family:Cako-Regular, Cako;letter-spacing:-0.049999443956361696em">P<tspan x="70.8" y="0" style="letter-spacing:-0.014157354547445752em">R</tspan><tspan x="149.51" y="0" style="letter-spacing:-0.0148845629231069em">O</tspan><tspan x="245.57" y="0" style="letter-spacing:-0.09999888791272339em">J</tspan><tspan x="274.8" y="0" style="letter-spacing:-0.056838297191302706em">E</tspan><tspan x="348.37" y="0" style="letter-spacing:0.03486732073515738em">C</tspan><tspan x="448.67" y="0" style="letter-spacing:-0.06220726115629033em">T</tspan><tspan x="520.58" y="0">S</tspan></text></g></g></svg>